<?xml version="1.0" encoding="utf-8"?>
<!-- Generator: Adobe Illustrator 21.1.0, SVG Export Plug-In . SVG Version: 6.00 Build 0)  -->
<svg version="1.1" id="Isolation_Mode" xmlns="http://www.w3.org/2000/svg" xmlns:xlink="http://www.w3.org/1999/xlink" x="0px"
	 y="0px" viewBox="0 0 99.5 33.9" style="enable-background:new 0 0 99.5 33.9;" xml:space="preserve">
<style type="text/css">
	.st0{clip-path:url(#SVGID_2_);fill:#F57F29;}
	.st1{clip-path:url(#SVGID_4_);fill:#F57F29;}
	.st2{clip-path:url(#SVGID_6_);fill:#231F20;}
	.st3{clip-path:url(#SVGID_8_);fill:#231F20;}
	.st4{clip-path:url(#SVGID_10_);fill:#231F20;}
	.st5{clip-path:url(#SVGID_12_);fill:#231F20;}
	.st6{clip-path:url(#SVGID_14_);fill:#F57F29;}
	.st7{clip-path:url(#SVGID_16_);}
	.st8{fill:none;}
	.st9{enable-background:new    ;}
	.st10{clip-path:url(#SVGID_18_);fill:#F57F29;}
	.st11{clip-path:url(#SVGID_20_);fill:#F57F29;}
	.st12{clip-path:url(#SVGID_22_);fill:#231F20;}
	.st13{clip-path:url(#SVGID_24_);fill:#231F20;}
	.st14{clip-path:url(#SVGID_26_);fill:#231F20;}
	.st15{clip-path:url(#SVGID_28_);fill:#231F20;}
	.st16{clip-path:url(#SVGID_30_);fill:#F57F29;}
	.st17{clip-path:url(#SVGID_32_);}
</style>
<g>
	<g>
		<g>
			<g>
				<g>
					<defs>
						<rect id="SVGID_1_" y="40.6" width="99.5" height="25.1"/>
					</defs>
					<clipPath id="SVGID_2_">
						<use xlink:href="#SVGID_1_"  style="overflow:visible;"/>
					</clipPath>
					<path class="st0" d="M0,65.3h7.9c7.2,0,11.4-3.6,11.4-11.6c0-6.8-3.8-11.3-10.5-11.3H0V65.3z M6.2,47h0.5c3.3,0,6.2,1.1,6.2,7
						c0,4.4-1.8,7-5.3,7H6.2V47z"/>
				</g>
			</g>
		</g>
	</g>
	<g>
		<g>
			<g>
				<g>
					<defs>
						<rect id="SVGID_3_" y="40.6" width="99.5" height="25.1"/>
					</defs>
					<clipPath id="SVGID_4_">
						<use xlink:href="#SVGID_3_"  style="overflow:visible;"/>
					</clipPath>
					<path class="st1" d="M33,59.5c-0.6,0.4-2.2,1.3-4.4,1.3c-3.9,0-6-3-6-6.9c0-4.5,1.8-7,5.8-7c1.9,0,3.7,0.9,4.5,1.3l0.3-5.1
						c-0.6-0.2-2.6-1-5.5-1c-7.5,0-11.4,4.9-11.4,11.7c0,8,4.8,12,11.4,12c1.7,0,3.7-0.3,5.6-0.9L33,59.5z"/>
				</g>
			</g>
		</g>
	</g>
	<g>
		<g>
			<g>
				<g>
					<defs>
						<rect id="SVGID_5_" y="40.6" width="99.5" height="25.1"/>
					</defs>
					<clipPath id="SVGID_6_">
						<use xlink:href="#SVGID_5_"  style="overflow:visible;"/>
					</clipPath>
					<path class="st2" d="M39.9,61.1v-5.3h1.9c1.6,0,2.5,1,2.5,2.7s-1,2.6-2.8,2.6H39.9z M34,65.3h8.8c4.4,0,7.4-1.9,7.4-6.4
						c0-3.1-1.8-4.9-4.7-5.4v-0.1c2.3-0.6,4.3-1.9,4.3-5.6c0-3.4-2.4-5.4-7.2-5.4H34V65.3z M39.9,51.6v-5h1.6c1.4,0,2.5,0.8,2.5,2.5
						c0,1.9-1.3,2.5-2.9,2.5H39.9z"/>
				</g>
			</g>
		</g>
	</g>
	<g>
		<g>
			<g>
				<g>
					<defs>
						<rect id="SVGID_7_" y="40.6" width="99.5" height="25.1"/>
					</defs>
					<clipPath id="SVGID_8_">
						<use xlink:href="#SVGID_7_"  style="overflow:visible;"/>
					</clipPath>
					<path class="st3" d="M65,54.2c0-3.5-1.2-6.3-7.2-6.3c-2.9,0-5,0.6-6.4,1.1l0.2,4.2c1.2-0.8,3.1-1.6,4.9-1.6
						c2.3,0,3.2,1.2,3.2,2.3v0.5h-1.5c-5.9,0-8.8,2-8.8,5.8c0,3.3,2.2,5.4,5.2,5.4c2.1,0,3.4-0.9,5.1-2.8c0,0.8,0.1,1.6,0.2,2.4h5.2
						c-0.1-1-0.2-2.4-0.2-3.8L65,54.2L65,54.2z M59.8,57.6c0,1.6-0.3,4.4-3,4.4c-1.2,0-2-0.6-2-2.1c0-2,1.7-2.8,4.4-2.8h0.7v0.5
						C59.9,57.6,59.8,57.6,59.8,57.6z"/>
				</g>
			</g>
		</g>
	</g>
	<g>
		<g>
			<g>
				<g>
					<defs>
						<rect id="SVGID_9_" y="40.6" width="99.5" height="25.1"/>
					</defs>
					<clipPath id="SVGID_10_">
						<use xlink:href="#SVGID_9_"  style="overflow:visible;"/>
					</clipPath>
					<path class="st4" d="M66.3,65.3h5.9v-9.4c0-1.8,0.7-3.3,2.1-3.3c1.1,0,1.6,0.8,1.6,2.4v10.3h5.9v-12c0-3.8-2.3-5.5-5.2-5.5
						c-3.3,0-4.5,2.3-4.8,3.2h-0.1c0-1,0-2.2-0.1-2.9h-5.5c0.1,0.8,0.2,2.2,0.2,3.5V65.3z"/>
				</g>
			</g>
		</g>
	</g>
	<g>
		<g>
			<g>
				<g>
					<defs>
						<rect id="SVGID_11_" y="40.6" width="99.5" height="25.1"/>
					</defs>
					<clipPath id="SVGID_12_">
						<use xlink:href="#SVGID_11_"  style="overflow:visible;"/>
					</clipPath>
					<polygon class="st5" points="92.7,65.3 99.3,65.3 94.1,56.1 98.9,48.2 93,48.2 89.1,55.1 89,55.1 89,40.7 83.1,40.7 83.1,65.3 
						89,65.3 89,57.3 89.1,57.3 					"/>
				</g>
			</g>
		</g>
	</g>
	<g>
		<g>
			<g>
				<g>
					<defs>
						<rect id="SVGID_13_" y="40.6" width="99.5" height="25.1"/>
					</defs>
					<clipPath id="SVGID_14_">
						<use xlink:href="#SVGID_13_"  style="overflow:visible;"/>
					</clipPath>
					<polygon class="st6" points="34,48.6 34,59 43.8,53.5 					"/>
				</g>
			</g>
		</g>
	</g>
	<g>
		<g>
			<g>
				<g>
					<defs>
						<rect id="SVGID_15_" y="40.6" width="99.5" height="25.1"/>
					</defs>
					<clipPath id="SVGID_16_">
						<use xlink:href="#SVGID_15_"  style="overflow:visible;"/>
					</clipPath>
					<path class="st7" d="M97.6,40.6c1.1,0,1.9,0.8,1.9,1.9s-0.8,1.9-1.9,1.9s-2-0.8-2-1.9C95.6,41.5,96.5,40.6,97.6,40.6L97.6,40.6
						z M97.6,41c-0.8,0-1.5,0.7-1.5,1.5s0.6,1.5,1.5,1.5c0.8,0,1.4-0.7,1.4-1.5C99.1,41.7,98.4,41,97.6,41L97.6,41z M97.3,43.5h-0.4
						v-1.9c0.2,0,0.4-0.1,0.7-0.1c0.4,0,0.5,0.1,0.7,0.2c0.1,0.1,0.2,0.2,0.2,0.4s-0.2,0.4-0.4,0.5l0,0c0.2,0.1,0.3,0.2,0.3,0.5
						s0.1,0.4,0.1,0.4H98c0,0,0-0.2-0.1-0.4c0-0.2-0.2-0.3-0.4-0.3h-0.2V43.5z M97.3,42.5h0.2c0.3,0,0.5-0.1,0.5-0.3
						s-0.1-0.3-0.4-0.3c-0.1,0-0.2,0-0.2,0L97.3,42.5L97.3,42.5z"/>
				</g>
			</g>
		</g>
	</g>
</g>
<rect y="67.9" class="st8" width="99.5" height="10.5"/>
<text transform="matrix(1 0 0 1 -0.7277 73.1497)" style="font-family:'Montserrat-Regular'; font-size:7px;">Banking for Payments</text>
<g>
	<g>
		<g>
			<g>
				<g>
					<defs>
						<rect id="SVGID_17_" width="99.5" height="25.1"/>
					</defs>
					<clipPath id="SVGID_18_">
						<use xlink:href="#SVGID_17_"  style="overflow:visible;"/>
					</clipPath>
					<path class="st10" d="M0,24.7h7.9c7.2,0,11.4-3.6,11.4-11.6c0-6.8-3.8-11.3-10.5-11.3H0V24.7z M6.2,6.4h0.5
						c3.3,0,6.2,1.1,6.2,7c0,4.4-1.8,7-5.3,7H6.2V6.4z"/>
				</g>
			</g>
		</g>
	</g>
	<g>
		<g>
			<g>
				<g>
					<defs>
						<rect id="SVGID_19_" width="99.5" height="25.1"/>
					</defs>
					<clipPath id="SVGID_20_">
						<use xlink:href="#SVGID_19_"  style="overflow:visible;"/>
					</clipPath>
					<path class="st11" d="M33,18.9c-0.6,0.4-2.2,1.3-4.4,1.3c-3.9,0-6-3-6-6.9c0-4.5,1.8-7,5.8-7c1.9,0,3.7,0.9,4.5,1.3l0.3-5.1
						c-0.6-0.2-2.6-1-5.5-1c-7.5,0-11.4,4.9-11.4,11.7c0,8,4.8,12,11.4,12c1.7,0,3.7-0.3,5.6-0.9L33,18.9z"/>
				</g>
			</g>
		</g>
	</g>
	<g>
		<g>
			<g>
				<g>
					<defs>
						<rect id="SVGID_21_" width="99.5" height="25.1"/>
					</defs>
					<clipPath id="SVGID_22_">
						<use xlink:href="#SVGID_21_"  style="overflow:visible;"/>
					</clipPath>
					<path class="st12" d="M39.9,20.5v-5.3h1.9c1.6,0,2.5,1,2.5,2.7s-1,2.6-2.8,2.6H39.9z M34,24.7h8.8c4.4,0,7.4-1.9,7.4-6.4
						c0-3.1-1.8-4.9-4.7-5.4v-0.1c2.3-0.6,4.3-1.9,4.3-5.6c0-3.4-2.4-5.4-7.2-5.4H34V24.7z M39.9,11V6h1.6C42.9,6,44,6.8,44,8.5
						c0,1.9-1.3,2.5-2.9,2.5H39.9z"/>
				</g>
			</g>
		</g>
	</g>
	<g>
		<g>
			<g>
				<g>
					<defs>
						<rect id="SVGID_23_" width="99.5" height="25.1"/>
					</defs>
					<clipPath id="SVGID_24_">
						<use xlink:href="#SVGID_23_"  style="overflow:visible;"/>
					</clipPath>
					<path class="st13" d="M65,13.6c0-3.5-1.2-6.3-7.2-6.3c-2.9,0-5,0.6-6.4,1.1l0.2,4.2c1.2-0.8,3.1-1.6,4.9-1.6
						c2.3,0,3.2,1.2,3.2,2.3v0.5h-1.5c-5.9,0-8.8,2-8.8,5.8c0,3.3,2.2,5.4,5.2,5.4c2.1,0,3.4-0.9,5.1-2.8c0,0.8,0.1,1.6,0.2,2.4h5.2
						c-0.1-1-0.2-2.4-0.2-3.8L65,13.6L65,13.6z M59.8,17c0,1.6-0.3,4.4-3,4.4c-1.2,0-2-0.6-2-2.1c0-2,1.7-2.8,4.4-2.8h0.7V17H59.8z"
						/>
				</g>
			</g>
		</g>
	</g>
	<g>
		<g>
			<g>
				<g>
					<defs>
						<rect id="SVGID_25_" width="99.5" height="25.1"/>
					</defs>
					<clipPath id="SVGID_26_">
						<use xlink:href="#SVGID_25_"  style="overflow:visible;"/>
					</clipPath>
					<path class="st14" d="M66.3,24.7h5.9v-9.4c0-1.8,0.7-3.3,2.1-3.3c1.1,0,1.6,0.8,1.6,2.4v10.3h5.9v-12c0-3.8-2.3-5.5-5.2-5.5
						c-3.3,0-4.5,2.3-4.8,3.2h-0.1c0-1,0-2.2-0.1-2.9h-5.5c0.1,0.8,0.2,2.2,0.2,3.5V24.7z"/>
				</g>
			</g>
		</g>
	</g>
	<g>
		<g>
			<g>
				<g>
					<defs>
						<rect id="SVGID_27_" width="99.5" height="25.1"/>
					</defs>
					<clipPath id="SVGID_28_">
						<use xlink:href="#SVGID_27_"  style="overflow:visible;"/>
					</clipPath>
					<polygon class="st15" points="92.7,24.7 99.3,24.7 94.1,15.5 98.9,7.6 93,7.6 89.1,14.5 89,14.5 89,0.1 83.1,0.1 83.1,24.7 
						89,24.7 89,16.7 89.1,16.7 					"/>
				</g>
			</g>
		</g>
	</g>
	<g>
		<g>
			<g>
				<g>
					<defs>
						<rect id="SVGID_29_" width="99.5" height="25.1"/>
					</defs>
					<clipPath id="SVGID_30_">
						<use xlink:href="#SVGID_29_"  style="overflow:visible;"/>
					</clipPath>
					<polygon class="st16" points="34,8 34,18.4 43.8,12.9 					"/>
				</g>
			</g>
		</g>
	</g>
	<g>
		<g>
			<g>
				<g>
					<defs>
						<rect id="SVGID_31_" width="99.5" height="25.1"/>
					</defs>
					<clipPath id="SVGID_32_">
						<use xlink:href="#SVGID_31_"  style="overflow:visible;"/>
					</clipPath>
					<path class="st17" d="M97.6,0c1.1,0,1.9,0.8,1.9,1.9s-0.8,1.9-1.9,1.9s-2-0.8-2-1.9C95.6,0.9,96.5,0,97.6,0L97.6,0z M97.6,0.4
						c-0.8,0-1.5,0.7-1.5,1.5s0.6,1.5,1.5,1.5c0.8,0,1.4-0.7,1.4-1.5C99.1,1.1,98.4,0.4,97.6,0.4L97.6,0.4z M97.3,2.9h-0.4V1
						c0.2,0,0.4-0.1,0.7-0.1c0.4,0,0.5,0.1,0.7,0.2c0.1,0.1,0.2,0.2,0.2,0.4S98.3,1.9,98.1,2l0,0c0.2,0.1,0.3,0.2,0.3,0.5
						s0.1,0.4,0.1,0.4H98c0,0,0-0.2-0.1-0.4c0-0.2-0.2-0.3-0.4-0.3h-0.2V2.9z M97.3,1.9h0.2c0.3,0,0.5-0.1,0.5-0.3s-0.1-0.3-0.4-0.3
						c-0.1,0-0.2,0-0.2,0L97.3,1.9L97.3,1.9z"/>
				</g>
			</g>
		</g>
	</g>
</g>
<rect y="27.3" class="st8" width="99.5" height="10.5"/>
<g class="st9">
	<path d="M3.3,28c0.3,0.2,0.4,0.5,0.4,0.9c0,0.3-0.1,0.5-0.2,0.7c-0.2,0.2-0.4,0.3-0.7,0.4c0.3,0.1,0.6,0.2,0.8,0.4S4,30.9,4,31.2
		c0,0.4-0.2,0.7-0.5,1c-0.3,0.2-0.8,0.4-1.3,0.4H0v-4.9h2.1C2.6,27.6,3,27.8,3.3,28z M2.8,29.5C3,29.4,3.1,29.2,3.1,29
		S3,28.6,2.9,28.5s-0.4-0.2-0.7-0.2H0.7v1.5h1.4C2.4,29.7,2.6,29.7,2.8,29.5z M3,31.7c0.2-0.1,0.3-0.3,0.3-0.6
		c0-0.2-0.1-0.4-0.3-0.6c-0.2-0.1-0.5-0.2-0.9-0.2H0.7v1.6h1.4C2.5,31.9,2.8,31.9,3,31.7z"/>
	<path d="M8.5,32.5V32c-0.3,0.4-0.7,0.5-1.3,0.5c-0.3,0-0.5,0-0.7-0.1S6.2,32.2,6.1,32s-0.2-0.4-0.2-0.6c0-0.3,0.1-0.6,0.4-0.8
		s0.6-0.3,1-0.3h1.2v-0.2c0-0.3-0.1-0.5-0.2-0.6s-0.4-0.2-0.7-0.2c-0.4,0-0.8,0.1-1.1,0.4l-0.3-0.4c0.3-0.2,0.5-0.3,0.7-0.4
		s0.5-0.1,0.8-0.1c0.5,0,0.8,0.1,1.1,0.3c0.3,0.2,0.4,0.5,0.4,0.9v2.4H8.5V32.5z M8.1,31.8c0.2-0.1,0.3-0.3,0.4-0.6v-0.4H7.4
		c-0.3,0-0.5,0-0.7,0.1c-0.1,0.1-0.2,0.2-0.2,0.4s0.1,0.3,0.2,0.5C6.9,32,7.1,32,7.3,32C7.6,32,7.9,32,8.1,31.8z"/>
	<path d="M14.6,29.2c0.2,0.3,0.4,0.6,0.4,1.1v2.3h-0.7v-2.1c0-0.3-0.1-0.6-0.3-0.7c-0.2-0.2-0.4-0.3-0.7-0.3s-0.6,0.1-0.8,0.3
		c-0.2,0.2-0.3,0.5-0.4,0.8v2h-0.7v-3.7h0.7v0.8c0.2-0.5,0.7-0.8,1.4-0.8C14,28.8,14.4,29,14.6,29.2z"/>
	<path d="M20,32.5l-1.2-1.8l-0.7,0.7v1h-0.7v-5.2h0.7v3.3l1.8-1.8h0.8l-1.4,1.4l1.5,2.3L20,32.5L20,32.5z"/>
	<path d="M23.4,27.5c0.1,0.1,0.1,0.2,0.1,0.3s0,0.2-0.1,0.3s-0.2,0.1-0.3,0.1s-0.2,0-0.3-0.1s-0.1-0.2-0.1-0.3s0-0.2,0.1-0.3
		c0.1-0.1,0.2-0.1,0.3-0.1S23.3,27.4,23.4,27.5z M22.8,28.8h0.7v3.7h-0.7V28.8z"/>
	<path d="M29,29.2c0.2,0.3,0.4,0.6,0.4,1.1v2.3h-0.7v-2.1c0-0.3-0.1-0.6-0.3-0.7c-0.2-0.2-0.4-0.3-0.7-0.3c-0.3,0-0.6,0.1-0.8,0.3
		c-0.2,0.2-0.3,0.5-0.4,0.8v2h-0.7v-3.7h0.7v0.8c0.2-0.5,0.7-0.8,1.4-0.8C28.4,28.8,28.8,29,29,29.2z"/>
	<path d="M35.1,28.8v3.3c0,0.4-0.1,0.7-0.2,0.9c-0.2,0.3-0.4,0.5-0.7,0.6s-0.6,0.2-1,0.2c-0.5,0-1.1-0.2-1.5-0.5l0.3-0.5
		c0.2,0.1,0.4,0.3,0.6,0.3c0.2,0.1,0.4,0.1,0.6,0.1c0.4,0,0.7-0.1,0.9-0.3s0.3-0.5,0.3-0.9v-0.5c-0.1,0.2-0.3,0.4-0.5,0.5
		s-0.5,0.2-0.8,0.2s-0.6-0.1-0.9-0.2c-0.3-0.2-0.5-0.4-0.6-0.6c-0.1-0.3-0.2-0.6-0.2-0.9s0.1-0.7,0.2-0.9s0.3-0.5,0.6-0.6
		c0.3-0.1,0.5-0.2,0.9-0.2c0.3,0,0.6,0.1,0.8,0.2s0.4,0.3,0.5,0.5v-0.7C34.4,28.8,35.1,28.8,35.1,28.8z M33.9,31.7
		c0.2-0.1,0.3-0.3,0.4-0.4c0.1-0.2,0.2-0.4,0.2-0.6s-0.1-0.5-0.2-0.6c-0.1-0.2-0.2-0.3-0.4-0.4s-0.4-0.2-0.6-0.2
		c-0.2,0-0.4,0.1-0.6,0.2s-0.3,0.3-0.4,0.4c-0.1,0.2-0.2,0.4-0.2,0.6c0,0.4,0.1,0.7,0.3,0.9c0.2,0.2,0.5,0.3,0.9,0.3
		C33.5,31.9,33.7,31.8,33.9,31.7z"/>
	<path d="M41.6,28c-0.1,0.1-0.2,0.2-0.2,0.4V29h1v0.5h-1v3.1h-0.7v-3.1h-0.5V29h0.5v-0.4c0-0.3,0.1-0.5,0.2-0.7
		c0.1-0.2,0.3-0.3,0.5-0.4s0.4-0.1,0.6-0.1c0.2,0,0.4,0.1,0.6,0.2L42.5,28c-0.2-0.1-0.3-0.1-0.5-0.1S41.7,27.9,41.6,28z"/>
	<path d="M46.7,29.1c0.3,0.2,0.5,0.4,0.7,0.7s0.2,0.6,0.2,1s-0.1,0.7-0.2,1c-0.2,0.3-0.4,0.5-0.7,0.7c-0.3,0.2-0.6,0.2-1,0.2
		s-0.7-0.1-1-0.2c-0.3-0.2-0.5-0.4-0.7-0.7s-0.2-0.6-0.2-1s0.1-0.7,0.2-1c0.2-0.3,0.4-0.5,0.7-0.7s0.6-0.2,1-0.2
		C46.1,28.8,46.5,28.9,46.7,29.1z M45.1,29.6c-0.2,0.1-0.3,0.3-0.4,0.5s-0.2,0.4-0.2,0.7c0,0.3,0.1,0.5,0.2,0.7
		c0.1,0.2,0.3,0.4,0.4,0.5s0.4,0.2,0.6,0.2c0.2,0,0.5-0.1,0.6-0.2s0.3-0.3,0.4-0.5c0.1-0.2,0.2-0.4,0.2-0.7c0-0.3-0.1-0.5-0.2-0.7
		s-0.3-0.4-0.4-0.5c-0.2-0.1-0.4-0.2-0.6-0.2C45.5,29.4,45.3,29.4,45.1,29.6z"/>
	<path d="M51,29c0.2-0.1,0.5-0.2,0.8-0.2v0.6c-0.4,0-0.7,0.1-0.9,0.3s-0.4,0.5-0.4,0.8v2h-0.7v-3.7h0.7v0.8
		C50.6,29.4,50.8,29.2,51,29z"/>
	<path d="M60.2,28.1c0.3,0.3,0.5,0.7,0.5,1.2s-0.2,1-0.5,1.3S59.4,31,58.8,31h-1.2v1.5h-0.7v-4.9h1.9C59.4,27.6,59.9,27.8,60.2,28.1
		z M59.7,30.1c0.2-0.2,0.3-0.5,0.3-0.8c0-0.4-0.1-0.6-0.3-0.8c-0.2-0.2-0.5-0.3-1-0.3h-1.2v2.1h1.2C59.2,30.4,59.5,30.3,59.7,30.1z"
		/>
	<path d="M65.1,32.5V32c-0.3,0.4-0.7,0.5-1.3,0.5c-0.3,0-0.5,0-0.7-0.1s-0.3-0.2-0.4-0.4c-0.1-0.2-0.2-0.4-0.2-0.6
		c0-0.3,0.1-0.6,0.4-0.8s0.6-0.3,1-0.3h1.2v-0.2c0-0.3-0.1-0.5-0.2-0.6s-0.4-0.2-0.7-0.2c-0.4,0-0.8,0.1-1.1,0.4l-0.3-0.4
		c0.3-0.2,0.5-0.3,0.7-0.4s0.5-0.1,0.8-0.1c0.5,0,0.8,0.1,1.1,0.3c0.3,0.2,0.4,0.5,0.4,0.9v2.4h-0.7V32.5z M64.7,31.8
		c0.2-0.1,0.3-0.3,0.4-0.6v-0.4H64c-0.3,0-0.5,0-0.7,0.1s-0.2,0.2-0.2,0.4s0.1,0.3,0.2,0.5c0.1,0.1,0.3,0.2,0.6,0.2
		S64.5,32,64.7,31.8z"/>
	<path d="M68.8,33.7c-0.2,0.1-0.4,0.2-0.7,0.2c-0.2,0-0.3,0-0.4-0.1c-0.1,0-0.3-0.1-0.4-0.2l0.3-0.5c0.2,0.1,0.3,0.2,0.5,0.2
		c0.3,0,0.5-0.2,0.6-0.5l0.1-0.3l-1.5-3.7H68l1.2,3l1.1-3H71L69.3,33C69.2,33.4,69,33.6,68.8,33.7z"/>
	<path d="M78.7,29.2c0.2,0.3,0.4,0.6,0.4,1v2.3h-0.7v-2.1c0-0.3-0.1-0.6-0.3-0.7c-0.2-0.2-0.4-0.3-0.7-0.3c-0.3,0-0.6,0.1-0.8,0.4
		c-0.2,0.2-0.3,0.5-0.3,0.9v1.8h-0.7v-2.1c0-0.3-0.1-0.6-0.3-0.7c-0.2-0.2-0.4-0.3-0.7-0.3c-0.3,0-0.6,0.1-0.8,0.4s-0.3,0.5-0.3,0.9
		v1.8h-0.7v-3.7h0.7v0.8c0.2-0.5,0.7-0.8,1.4-0.8c0.3,0,0.6,0.1,0.9,0.2c0.2,0.2,0.4,0.4,0.5,0.7c0.2-0.6,0.7-0.9,1.4-0.9
		C78.1,28.8,78.5,29,78.7,29.2z"/>
	<path d="M84.3,29.3c0.3,0.3,0.4,0.8,0.4,1.4c0,0.1,0,0.2,0,0.2h-2.9c0.1,0.3,0.2,0.6,0.4,0.8c0.2,0.2,0.5,0.3,0.8,0.3
		c0.2,0,0.4,0,0.6-0.1s0.4-0.2,0.5-0.3l0.4,0.4c-0.2,0.2-0.4,0.3-0.7,0.5c-0.3,0.1-0.5,0.2-0.9,0.2s-0.7-0.1-1-0.2
		c-0.3-0.2-0.5-0.4-0.7-0.7s-0.2-0.6-0.2-1s0.1-0.7,0.2-1s0.4-0.5,0.7-0.7c0.3-0.2,0.6-0.2,1-0.2C83.5,28.8,84,29,84.3,29.3z
		 M84.1,30.5c0-0.3-0.1-0.6-0.3-0.8c-0.2-0.2-0.5-0.3-0.8-0.3s-0.6,0.1-0.8,0.3c-0.2,0.2-0.3,0.5-0.4,0.8H84.1z"/>
	<path d="M89.9,29.2c0.2,0.3,0.4,0.6,0.4,1.1v2.3h-0.7v-2.1c0-0.3-0.1-0.6-0.3-0.7c-0.2-0.2-0.4-0.3-0.7-0.3c-0.3,0-0.6,0.1-0.8,0.3
		c-0.2,0.2-0.3,0.5-0.4,0.8v2h-0.7v-3.7h0.7v0.8c0.2-0.5,0.7-0.8,1.4-0.8C89.3,28.8,89.7,29,89.9,29.2z"/>
	<path d="M94.7,32.3c-0.3,0.2-0.6,0.3-0.9,0.3s-0.5-0.1-0.7-0.3s-0.3-0.4-0.3-0.8v-2.1h-0.5V29h0.5v-1h0.7v1h1.1v0.5h-1.1v1.9
		c0,0.2,0,0.4,0.1,0.4c0.1,0.1,0.2,0.1,0.3,0.1c0.2,0,0.4-0.1,0.6-0.2L94.7,32.3z"/>
	<path d="M98.3,29.4c-0.2-0.1-0.4-0.1-0.5-0.1c-0.2,0-0.4,0-0.5,0.1s-0.2,0.2-0.2,0.3s0.1,0.3,0.2,0.3c0.1,0.1,0.3,0.2,0.6,0.2
		c0.3,0.1,0.5,0.1,0.6,0.2c0.2,0.1,0.3,0.2,0.4,0.3c0.1,0.1,0.2,0.3,0.2,0.6c0,0.3-0.1,0.6-0.4,0.8c-0.3,0.2-0.6,0.3-1,0.3
		c-0.3,0-0.5,0-0.8-0.1s-0.5-0.2-0.7-0.4l0.2-0.5c0.2,0.1,0.3,0.3,0.6,0.3s0.4,0.1,0.7,0.1c0.2,0,0.4,0,0.5-0.1s0.2-0.2,0.2-0.4
		c0-0.2-0.1-0.3-0.2-0.4s-0.3-0.2-0.6-0.3c-0.2-0.1-0.4-0.1-0.6-0.2s-0.3-0.2-0.4-0.3c-0.1-0.1-0.2-0.3-0.2-0.5
		c0-0.3,0.1-0.6,0.4-0.8s0.6-0.3,0.9-0.3c0.2,0,0.4,0,0.7,0.1c0.2,0.1,0.4,0.1,0.6,0.3l-0.2,0.5C98.6,29.6,98.5,29.5,98.3,29.4z"/>
</g>
</svg>
